<?xml version="1.0" encoding="utf-8"?>
<!-- Generator: Adobe Illustrator 21.1.0, SVG Export Plug-In . SVG Version: 6.00 Build 0)  -->
<svg version="1.1" id="Layer_1" xmlns="http://www.w3.org/2000/svg" xmlns:xlink="http://www.w3.org/1999/xlink" x="0px" y="0px"
	 viewBox="0 0 183 42" style="enable-background:new 0 0 183 42;" xml:space="preserve">
<style type="text/css">
	.st0{fill:#F58021;}
	.st1{fill:#F99D2A;}
	.st2{fill:#FDB71A;}
	.st3{fill:#FFFFFF;}
</style>
<g>
	<path class="st0" d="M22.5,18.8c0.3,0.5,0.5,1.1,0.6,1.8c0,1.8-1.6,2.2-1.5,4.1c0,1.2,1.1,2.2,2.5,2.2c0.1,0,0.3,0,0.4,0
		C27.4,24,23.5,20.4,22.5,18.8"/>
	<g>
		<path class="st1" d="M11.8,29.9c0,0.2-0.1,0.4-0.1,0.6c0,1.5,1.2,2.6,2.6,2.6h0h0c0.7,0,2-0.3,2.6-0.5c14.8-3.4,14.4,1.7,14.4,4.5
			s-1.6,4.8-4.1,4.8h-8.8C9.7,37.5,11.8,30.1,11.8,29.9"/>
		<path class="st0" d="M11.8,29.8c-0.2,0.5-3,7.7,2.6,12.1h4.1C9.7,37.5,11.8,30.1,11.8,29.8"/>
		<g>
			<path class="st2" d="M11.8,29.8c-0.2,0.5-3,7.7,2.6,12.1h-3.8C6.3,41.9,0,40.6,0,35.5C0,29.6,5.5,24.6,5.5,20
				c0-2.4-3.9-9.8-3.9-10C-3.3-0.4,8,0,9.6,0h15.9c2.8,0,5.9,2,5.9,4.8c0,2.8,0.2,8.7-14.4,4.5c-4.8-1.4-5.8,0.7-5.8,1.9
				c0,3.1,7.3,5.9,7.3,9.2c0,1.9-1.5,2.4-4.2,5.6C14,26.4,12.2,28.3,11.8,29.8L11.8,29.8z"/>
			<path class="st2" d="M24.1,15c-1.2,0-2.2,0.9-2.2,2.1c0,0.7,0.6,1.7,0.6,1.8c1,1.6,4.8,5.2,1.9,8c2.1-0.4,6.2-3.4,6.2-6.2
				C30.7,18.4,25.9,15,24.1,15"/>
			<path class="st3" d="M52.8,27.7c-0.2,0.1-0.4,0.2-0.8,0.4c-0.3,0.2-0.8,0.4-1.3,0.5c-0.5,0.2-1.1,0.3-1.8,0.4
				c-0.7,0.1-1.4,0.2-2.2,0.2c-1.1,0-2.2-0.2-3.2-0.5c-1-0.3-1.9-0.9-2.6-1.5c-0.7-0.7-1.3-1.5-1.8-2.5c-0.4-1-0.6-2.1-0.6-3.4
				c0-1.2,0.2-2.3,0.6-3.3c0.4-1,1-1.9,1.7-2.6c0.7-0.7,1.6-1.3,2.6-1.7s2.1-0.6,3.3-0.6c1.1,0,2,0.1,2.8,0.4
				c0.8,0.3,1.5,0.6,2.1,1.1c0.6,0.5,1,1,1.3,1.6c0.3,0.6,0.4,1.3,0.4,2c0,0.7-0.1,1.4-0.4,1.9c-0.3,0.6-0.7,1.1-1.4,1.5
				c-0.7,0.4-1.6,0.7-2.7,1c-1.1,0.2-2.6,0.4-4.3,0.4c-0.4,0-0.8,0-1.1,0c-0.4,0-0.7,0-1.1,0c0.2,1,0.7,1.9,1.5,2.5
				c0.8,0.6,2,1,3.6,1c0.5,0,1,0,1.5-0.1c0.4-0.1,0.8-0.2,1.2-0.3c0.4-0.1,0.7-0.2,0.9-0.4c0.3-0.1,0.4-0.2,0.6-0.3L52.8,27.7z
				 M42.1,20.5c0.5,0,0.9,0,1.3,0h1.3c1.1,0,2-0.1,2.7-0.2c0.7-0.1,1.2-0.3,1.6-0.5c0.4-0.2,0.6-0.5,0.8-0.8
				c0.1-0.3,0.2-0.6,0.2-0.9c0-0.8-0.3-1.4-0.9-1.7c-0.6-0.4-1.4-0.6-2.3-0.6c-0.8,0-1.4,0.1-2,0.4c-0.6,0.3-1,0.6-1.4,1.1
				c-0.4,0.4-0.7,0.9-0.9,1.5C42.2,19.3,42.1,19.9,42.1,20.5"/>
			<path class="st3" d="M85,27.7c-0.2,0.1-0.4,0.2-0.8,0.4c-0.3,0.2-0.8,0.4-1.3,0.5c-0.5,0.2-1.1,0.3-1.8,0.4
				c-0.7,0.1-1.4,0.2-2.2,0.2c-1.1,0-2.2-0.2-3.2-0.5c-1-0.3-1.9-0.9-2.6-1.5c-0.7-0.7-1.3-1.5-1.8-2.5c-0.4-1-0.6-2.1-0.6-3.4
				c0-1.2,0.2-2.3,0.6-3.3c0.4-1,1-1.9,1.7-2.6c0.7-0.7,1.6-1.3,2.6-1.7c1-0.4,2.1-0.6,3.3-0.6c1.1,0,2,0.1,2.8,0.4
				c0.8,0.3,1.5,0.6,2.1,1.1c0.6,0.5,1,1,1.3,1.6c0.3,0.6,0.4,1.3,0.4,2c0,0.7-0.1,1.4-0.4,1.9c-0.3,0.6-0.7,1.1-1.4,1.5
				c-0.7,0.4-1.6,0.7-2.7,1c-1.1,0.2-2.6,0.4-4.3,0.4c-0.4,0-0.8,0-1.1,0c-0.4,0-0.7,0-1.1,0c0.2,1,0.7,1.9,1.5,2.5
				c0.8,0.6,2,1,3.6,1c0.5,0,1,0,1.5-0.1c0.4-0.1,0.8-0.2,1.2-0.3c0.4-0.1,0.7-0.2,0.9-0.4c0.3-0.1,0.4-0.2,0.6-0.3L85,27.7z
				 M74.2,20.5c0.5,0,0.9,0,1.3,0h1.3c1.1,0,2-0.1,2.7-0.2c0.7-0.1,1.2-0.3,1.6-0.5c0.4-0.2,0.6-0.5,0.8-0.8
				c0.1-0.3,0.2-0.6,0.2-0.9c0-0.8-0.3-1.4-0.9-1.7c-0.6-0.4-1.4-0.6-2.3-0.6c-0.8,0-1.4,0.1-2,0.4c-0.6,0.3-1,0.6-1.4,1.1
				c-0.4,0.4-0.7,0.9-0.9,1.5C74.4,19.3,74.3,19.9,74.2,20.5"/>
			<path class="st3" d="M150.4,13.1c1.2,0,2.3,0.2,3.3,0.6c1,0.4,1.9,1,2.7,1.7c0.8,0.7,1.3,1.6,1.8,2.6c0.4,1,0.6,2.1,0.6,3.2
				c0,1.1-0.2,2.2-0.6,3.2c-0.4,1-1,1.8-1.8,2.6c-0.8,0.7-1.6,1.3-2.7,1.7c-1,0.4-2.1,0.6-3.3,0.6c-1.2,0-2.3-0.2-3.3-0.6
				c-1-0.4-1.9-1-2.7-1.7c-0.8-0.7-1.3-1.6-1.8-2.6c-0.4-1-0.6-2.1-0.6-3.2c0-1.2,0.2-2.2,0.6-3.2c0.4-1,1-1.8,1.8-2.6
				c0.8-0.7,1.6-1.3,2.7-1.7C148.1,13.3,149.2,13.1,150.4,13.1 M150.4,26.2c0.7,0,1.3-0.1,1.9-0.4c0.6-0.3,1.1-0.6,1.5-1.1
				c0.4-0.5,0.7-1,1-1.6c0.2-0.6,0.4-1.3,0.4-2c0-0.7-0.1-1.4-0.4-2c-0.2-0.6-0.6-1.2-1-1.6c-0.4-0.4-0.9-0.8-1.5-1.1
				c-0.6-0.3-1.2-0.4-1.9-0.4c-0.7,0-1.4,0.1-1.9,0.4c-0.6,0.3-1.1,0.6-1.5,1.1c-0.4,0.4-0.7,1-1,1.6c-0.2,0.6-0.4,1.3-0.4,2
				c0,0.7,0.1,1.4,0.4,2c0.2,0.6,0.6,1.1,1,1.6c0.4,0.5,0.9,0.8,1.5,1.1C149,26,149.7,26.2,150.4,26.2"/>
			<path class="st3" d="M136.8,29v-9c0-1.9-1.5-3.4-3.4-3.4c-1.9,0-3.4,1.5-3.4,3.4v9h-3.7v-9c0-1.9-1.5-3.4-3.4-3.4
				c-1.9,0-3.4,1.5-3.4,3.4v9h-3.7v-9c0-3.9,3.2-7,7-7c2,0,3.9,0.8,5.2,2.3l0,0l0,0c1.3-1.5,3.2-2.3,5.2-2.3c3.9,0,7.1,3.2,7.1,7v9
				H136.8z"/>
			<path class="st3" d="M98.8,29v-8.5c0-2.2-1.8-4-4-4s-4,1.8-4,4V29h-3.6v-8.5c0-4.2,3.4-7.6,7.6-7.6c4.2,0,7.6,3.4,7.6,7.6V29
				H98.8z"/>
			<path class="st3" d="M62.4,29.2c-0.9,0-1.7-0.5-2.1-1.3l-6-12.5c-0.3-0.5-0.2-1.2,0.1-1.7c0.3-0.5,0.9-0.8,1.5-0.8
				c0.7,0,1.3,0.4,1.6,1l4.9,10.3l4.9-10.3c0.3-0.6,0.9-1,1.6-1c0.6,0,1.2,0.3,1.5,0.8c0.3,0.5,0.4,1.1,0.1,1.7l-6,12.5
				C64.1,28.7,63.3,29.2,62.4,29.2"/>
			<path class="st3" d="M178.4,29V14.8c0-1,0.8-1.7,1.7-1.7c1,0,1.7,0.8,1.7,1.7V29H178.4z"/>
			<path class="st3" d="M113,25.4c-0.2,0.2-0.6,0.3-1.1,0.5c-0.5,0.2-1.1,0.3-1.6,0.3c-0.4,0-0.7,0-1.1-0.1
				c-0.3-0.1-0.6-0.2-0.9-0.4c-0.3-0.2-0.5-0.5-0.6-0.8c-0.1-0.3-0.2-0.8-0.2-1.3l0-7h4.7c0.9,0,1.6-0.7,1.6-1.6s-0.7-1.6-1.6-1.6
				h-4.7V8.4c0-1-0.8-1.7-1.7-1.7s-1.7,0.8-1.7,1.7v15.8c0,1.5,0.5,2.7,1.4,3.6c0.9,0.9,2.3,1.4,4.1,1.4c0.6,0,1.2-0.1,1.7-0.2
				c0.5-0.1,1-0.2,1.4-0.4c0.4-0.2,0.8-0.3,1.1-0.5c0.3-0.2,0.5-0.3,0.7-0.5L113,25.4z"/>
			<path class="st3" d="M176.2,17.9c-0.4-1-0.9-1.8-1.6-2.6c-0.7-0.7-1.5-1.3-2.5-1.7c-0.9-0.4-2-0.6-3.1-0.6
				c-1.2,0-2.2,0.2-3.1,0.7c-0.9,0.5-1.6,1-2.1,1.7v-3.4c0,0,0,0,0,0V8.4c0-1-0.8-1.7-1.7-1.7c-1,0-1.7,0.8-1.7,1.7v1.9V12v8.4
				c0,1.5,0.2,2.8,0.6,3.9c0.4,1.1,1,2,1.7,2.7c0.7,0.7,1.6,1.3,2.6,1.6c1,0.4,2.1,0.5,3.3,0.5c1.2,0,2.3-0.2,3.3-0.6
				c1-0.4,1.9-1,2.6-1.7c0.7-0.7,1.3-1.6,1.7-2.6c0.4-1,0.6-2.1,0.6-3.2C176.8,20,176.6,18.9,176.2,17.9 M172.9,23.1
				c-0.2,0.6-0.5,1.1-1,1.6c-0.4,0.4-0.9,0.8-1.5,1c-0.6,0.3-1.2,0.4-1.9,0.4c-0.7,0-1.3-0.1-1.9-0.4c-0.6-0.2-1.1-0.6-1.5-1
				c-0.4-0.4-0.7-0.9-1-1.6c-0.2-0.6-0.4-1.3-0.4-2c0-0.7,0.1-1.3,0.4-2c0.2-0.6,0.6-1.1,1-1.6c0.4-0.4,0.9-0.8,1.5-1.1
				c0.6-0.3,1.2-0.4,1.9-0.4c0.7,0,1.3,0.1,1.9,0.4c0.6,0.3,1.1,0.6,1.5,1c0.4,0.4,0.7,1,1,1.6c0.2,0.6,0.3,1.3,0.3,2
				S173.1,22.5,172.9,23.1"/>
			<path class="st3" d="M179.4,7c-0.5,0-0.8,0.4-0.8,0.8c0,0.5,0.5,0.9,0.5,1.4c0,0.7-0.6,0.8-0.6,1.5c0,0.5,0.4,0.8,0.9,0.8
				c0,0,0.1,0,0.2,0c0.8-0.1,2.4-1.3,2.4-2.3C181.9,8.3,180.1,6.9,179.4,7"/>
		</g>
	</g>
</g>
</svg>
